<?xml version="1.0" standalone="no"?>
<!DOCTYPE svg PUBLIC "-//W3C//DTD SVG 20010904//EN"
 "http://www.w3.org/TR/2001/REC-SVG-20010904/DTD/svg10.dtd">
<svg version="1.0" xmlns="http://www.w3.org/2000/svg"
 width="500.000000pt" height="500.000000pt" viewBox="0 0 500.000000 500.000000"
 preserveAspectRatio="xMidYMid meet">

<g transform="translate(0.000000,500.000000) scale(0.100000,-0.100000)"
fill="#3498db" stroke="none">
<path d="M2415 4511 c-210 -28 -433 -134 -603 -285 -35 -31 -61 -56 -60 -56 2
0 -23 -28 -55 -62 -67 -72 -158 -220 -198 -323 -72 -183 -89 -327 -89 -733 0
-140 -2 -253 -5 -250 -11 11 -146 -22 -197 -47 -116 -58 -205 -164 -241 -285
-19 -61 -20 -109 -24 -833 -5 -807 -1 -918 38 -1022 27 -73 75 -136 143 -189
68 -53 140 -82 234 -96 40 -6 538 -10 1237 -10 1265 0 1241 -1 1360 54 65 30
165 128 200 195 55 109 55 108 55 990 0 779 -5 941 -30 941 -4 0 -7 6 -7 13 0
25 -55 107 -106 157 -67 67 -151 109 -247 124 l-75 12 -6 369 c-7 380 -9 401
-54 540 -20 61 -37 98 -50 107 -5 4 -6 8 -2 8 8 0 -47 105 -69 131 -8 8 -14
19 -14 23 0 7 -32 49 -95 124 -153 184 -381 327 -613 382 -97 24 -324 34 -427
21z m340 -461 c119 -30 235 -99 331 -195 68 -67 90 -97 127 -176 71 -148 77
-189 77 -553 l0 -316 -22 -1 c-13 0 -331 0 -708 0 l-685 0 0 348 c0 340 1 349
24 417 81 235 270 415 501 477 94 25 255 25 355 -1z m-78 -2030 c24 -10 60
-37 81 -59 108 -114 69 -318 -74 -383 l-24 -11 0 -215 c0 -208 -1 -217 -22
-239 -28 -30 -85 -31 -116 -3 -21 20 -22 27 -22 235 l0 215 -37 24 c-44 28
-73 57 -102 106 -29 49 -29 153 0 215 53 113 202 167 316 115z"/>
</g>
</svg>
